<svg xmlns="http://www.w3.org/2000/svg" width="48" height="48" viewBox="0 0 48 48"><defs><filter id="f1" x="-50%" y="-200%" width="200%" height="500%"><feGaussianBlur stdDeviation="1.4"/></filter><linearGradient id="g2" x1="0" y1="0" x2="1" y2="1"><stop offset="0" stop-color="#f0d69c"/><stop offset="0.5" stop-color="#e0ad3a"/><stop offset="1" stop-color="#af872d"/></linearGradient><linearGradient id="g3" x1="0" y1="0" x2="1" y2="1"><stop offset="0" stop-color="#ffffff"/><stop offset="0.5" stop-color="#ffffff"/><stop offset="1" stop-color="#c7c7c7"/></linearGradient><linearGradient id="g4" x1="0" y1="0" x2="1" y2="1"><stop offset="0" stop-color="#feecba"/><stop offset="0.5" stop-color="#fcd976"/><stop offset="1" stop-color="#c5a95c"/></linearGradient><linearGradient id="g5" x1="0" y1="0" x2="1" y2="1"><stop offset="0" stop-color="#ffffff"/><stop offset="0.5" stop-color="#ffffff"/><stop offset="1" stop-color="#c7c7c7"/></linearGradient></defs><ellipse cx="24" cy="43.5" rx="18" ry="3" fill="#000" opacity="0.28" filter="url(#f1)"/><polygon points="3,8 17,8 20,11 39,11 39,38 3,38" fill="url(#g2)" stroke="#654e1a" stroke-width="1.2" stroke-opacity="1" stroke-linejoin="round"/><rect x="7" y="13" width="30" height="22" fill="url(#g3)" stroke="#737373" stroke-width="1.2" stroke-opacity="1" stroke-linejoin="round"/><polygon points="9,18 46,18 40,42 3,42" fill="url(#g4)" stroke="#716235" stroke-width="1.2" stroke-opacity="1" stroke-linejoin="round"/><rect x="19.4" y="23.4" width="10.2" height="13.2" fill="url(#g5)" stroke="#737373" stroke-width="1.2" stroke-opacity="1" stroke-linejoin="round"/><rect x="20.3" y="26.4" width="8.4" height="1.5" fill="#7a869a"/><rect x="20.3" y="28.8" width="8.4" height="1.5" fill="#7a869a"/><rect x="20.3" y="31.2" width="8.4" height="1.5" fill="#7a869a"/><rect x="20.3" y="33.6" width="5.4" height="1.5" fill="#7a869a"/></svg>
