<svg xmlns="http://www.w3.org/2000/svg" width="48" height="48" viewBox="0 0 48 48"><ellipse cx="24" cy="40" rx="3.6" ry="3.6" fill="#ffffff" opacity="0.35"/><polyline points="16.22,33.22 17.3,32.27 18.5,31.47 19.79,30.84 21.15,30.37 22.56,30.09 24.0,30.0 25.44,30.09 26.85,30.37 28.21,30.84 29.5,31.47 30.7,32.27 31.78,33.22" fill="none" stroke="#ffffff" stroke-width="4" stroke-linecap="round" stroke-linejoin="round" opacity="0.35"/><polyline points="8.44,25.44 10.61,23.55 13.0,21.95 15.58,20.67 18.31,19.75 21.13,19.19 24.0,19.0 26.87,19.19 29.69,19.75 32.42,20.67 35.0,21.95 37.39,23.55 39.56,25.44" fill="none" stroke="#ffffff" stroke-width="4" stroke-linecap="round" stroke-linejoin="round" opacity="0.35"/><polyline points="0.67,17.67 3.91,14.82 7.5,12.42 11.37,10.51 15.46,9.12 19.69,8.28 24.0,8.0 28.31,8.28 32.54,9.12 36.63,10.51 40.5,12.42 44.09,14.82 47.33,17.67" fill="none" stroke="#ffffff" stroke-width="4" stroke-linecap="round" stroke-linejoin="round" opacity="0.35"/><polyline points="31.0,30.0 43.0,42.0" fill="none" stroke="#ffffff" stroke-width="3.6" stroke-linecap="round" stroke-linejoin="round"/><polyline points="43.0,30.0 31.0,42.0" fill="none" stroke="#ffffff" stroke-width="3.6" stroke-linecap="round" stroke-linejoin="round"/></svg>
